<svg xmlns="http://www.w3.org/2000/svg" width="242.677" height="70.385" viewBox="0 0 242.677 70.385">
  <g id="Layer_2" data-name="Layer 2" transform="translate(-14.733 -8.011)">
    <g id="Layer_1" data-name="Layer 1">
      <path id="Path_58" data-name="Path 58" d="M238.444,55.828c-5.706-.395-9.19,3.439-9.545,7.239a.772.772,0,0,0,.192.564.851.851,0,0,0,.6.288l2.486.113a.823.823,0,0,0,.868-.7,4.273,4.273,0,0,1,4.64-3.89,5.047,5.047,0,0,1,4.888,4.866c0,2.328-3.558,2.746-5.909,3.022l-.739.09c-4.51.564-6.765,2.526-6.765,5.768,0,3.783,2.791,6.038,7.465,6.038a7.07,7.07,0,0,0,5.147-2.255.344.344,0,0,1,.355-.1.169.169,0,0,1,.1.164v.716a1,1,0,0,0,1,1H245.3a1.032,1.032,0,0,0,1.032-1.026V64.415a8.57,8.57,0,0,0-7.893-8.587ZM242.322,70.6a5.436,5.436,0,0,1-1.641,4.065,6.314,6.314,0,0,1-4.149,1.511c-2.1,0-4.364-1.128-4.364-3.512,0-2.255,1.838-3.586,5.463-4a19.231,19.231,0,0,0,4.257-.908.688.688,0,0,1,.231-.051.163.163,0,0,1,.1,0c.045,0,.118.13.118.434v.648C242.339,69.444,242.345,70.053,242.322,70.6Z" transform="translate(-99.847 -24.341)" fill="#fff"/>
      <path id="Path_59" data-name="Path 59" d="M147.919,70.815l-1.934-.186a1.037,1.037,0,0,0-1.128.767c-.7,2.684-2.881,4.245-6.021,4.245-4.223,0-6.946-3.185-6.946-8.124s2.723-8.124,6.946-8.124a5.814,5.814,0,0,1,6.033,4.51,1.054,1.054,0,0,0,1.128.812l1.934-.163a1.032,1.032,0,0,0,.755-.417,1.021,1.021,0,0,0,.18-.829c-1-4.567-4.928-7.515-10-7.515-6.765,0-11.135,4.595-11.135,11.7s4.477,11.749,11.135,11.749c5.074,0,8.812-2.667,10-7.132a1.037,1.037,0,0,0-.913-1.3Z" transform="translate(-55.717 -24.336)" fill="#fff"/>
      <path id="Path_60" data-name="Path 60" d="M172.619,35.82h2.013a1.037,1.037,0,0,1,1.037,1.037V69.05a1.037,1.037,0,0,1-1.037,1.043h-2.018a1.043,1.043,0,0,1-1.043-1.043V36.857a1.037,1.037,0,0,1,1.049-1.037Z" transform="translate(-74.841 -15.625)" fill="#fff"/>
      <path id="Path_61" data-name="Path 61" d="M196.575,55.8c-6.658,0-11.135,4.7-11.135,11.7s4.51,11.749,11.219,11.749c4.51,0,8.333-2.362,9.737-6.021a1.049,1.049,0,0,0-.1-.947,1.02,1.02,0,0,0-.812-.474L203.47,71.7a1.032,1.032,0,0,0-1.009.637c-.891,2.125-2.982,3.3-5.886,3.3a6.665,6.665,0,0,1-6.715-6.027.654.654,0,0,1,.152-.564.722.722,0,0,1,.536-.242h15.38a1.043,1.043,0,0,0,1.037-1.049V66.568C206.966,59.933,202.985,55.8,196.575,55.8Zm5.531,11.524H190.559a.739.739,0,0,1-.688-.817c0-4.042,2.864-7.087,6.658-7.087s6.269,2.819,6.269,7.115a.733.733,0,0,1-.693.789Z" transform="translate(-80.891 -24.341)" fill="#fff"/>
      <path id="Path_62" data-name="Path 62" d="M278.519,55.8c-3.473,0-6.106,1.861-8.04,5.689V57.232a1.043,1.043,0,0,0-1.043-1.037h-1.844a1.043,1.043,0,0,0-1.043,1.037V77.771a1.043,1.043,0,0,0,1.043,1.037h2.03a1.043,1.043,0,0,0,1.043-1.037V65.621a5.768,5.768,0,0,1,5.807-5.982c3.321,0,5.463,2.334,5.463,5.942V77.771a1.043,1.043,0,0,0,1.037,1.037h2.063a1.043,1.043,0,0,0,1.043-1.037V65.1C286.068,59.1,283.385,55.8,278.519,55.8Z" transform="translate(-116.272 -24.341)" fill="#fff"/>
      <path id="Path_63" data-name="Path 63" d="M316.766,65.618l-1.009-.231c-2.582-.564-4.138-.913-4.138-2.875a2.762,2.762,0,0,1,.789-2.058,4.512,4.512,0,0,1,3.276-1c2.306,0,3.755.942,4.24,2.819a1.043,1.043,0,0,0,1.066.8l2.018-.118a1.037,1.037,0,0,0,.958-1.269c-.891-3.7-3.817-5.813-8.04-5.813h-.242a8.945,8.945,0,0,0-6.444,2.188,6.162,6.162,0,0,0-1.765,4.51c0,4.584,3.558,5.412,7.684,6.371s5.367,1.46,5.367,3.586c0,1.973-1.646,3.146-4.409,3.146-2.61,0-4.285-1.015-4.843-2.932a1.049,1.049,0,0,0-1.071-.767l-2.035.141a1.054,1.054,0,0,0-.778.428,1.009,1.009,0,0,0-.163.84c.925,3.755,4.133,5.914,8.8,5.914,5.384,0,8.6-2.644,8.6-7.076C324.631,67.862,321.068,66.655,316.766,65.618Z" transform="translate(-134.002 -24.371)" fill="#fff"/>
      <path id="Path_64" data-name="Path 64" d="M345.923,35.82h2.018a1.037,1.037,0,0,1,1.037,1.037V69.05a1.037,1.037,0,0,1-1.037,1.037h-2.018a1.043,1.043,0,0,1-1.043-1.043V36.857a1.043,1.043,0,0,1,1.043-1.037Z" transform="translate(-150.44 -15.625)" fill="#fff"/>
      <path id="Path_65" data-name="Path 65" d="M404.946,69.646a9.866,9.866,0,0,1-1.2.073c-2.492,0-3.755-1.4-3.755-4.149l.079-10.712a.693.693,0,0,1,.693-.688h4.668a.631.631,0,0,0,.631-.631v-.564a.66.66,0,0,0-.66-.66h-4.623a.693.693,0,0,1-.693-.7l.034-7.713a1.037,1.037,0,0,0-1.043-1.043h-2.064a1.037,1.037,0,0,0-1.037,1.032l-.034,7.735a.7.7,0,0,1-.693.688H392.43a.665.665,0,0,0-.66.66v.564a.637.637,0,0,0,.637.631h2.819a.693.693,0,0,1,.491.2.676.676,0,0,1,.2.491l-.039,11.445a6.382,6.382,0,0,0,7.03,7.16,16.913,16.913,0,0,0,2.255-.141,1.049,1.049,0,0,0,.9-1.032V70.677a1.049,1.049,0,0,0-.349-.778,1.009,1.009,0,0,0-.772-.254Z" transform="translate(-170.894 -18.696)" fill="#fff"/>
      <path id="Path_66" data-name="Path 66" d="M429.525,55.8c-6.658,0-11.135,4.7-11.135,11.7s4.51,11.749,11.225,11.749c4.51,0,8.327-2.362,9.731-6.021a1.049,1.049,0,0,0-.1-.947,1.015,1.015,0,0,0-.812-.474l-2.007-.107a1.02,1.02,0,0,0-1.015.637c-.891,2.114-2.977,3.309-5.886,3.309a6.669,6.669,0,0,1-6.715-6.027.654.654,0,0,1,.158-.564.7.7,0,0,1,.53-.242h15.38a1.043,1.043,0,0,0,1.037-1.06V66.568C439.916,59.859,436.031,55.8,429.525,55.8Zm5.559,11.524H423.509a.739.739,0,0,1-.688-.817c0-4.042,2.864-7.087,6.658-7.087s6.269,2.819,6.269,7.115a.733.733,0,0,1-.665.789Z" transform="translate(-182.506 -24.341)" fill="#fff"/>
      <path id="Path_67" data-name="Path 67" d="M367.954,55.828c-5.711-.395-9.19,3.439-9.545,7.239a.772.772,0,0,0,.192.564.84.84,0,0,0,.6.288l2.481.113h.039a.84.84,0,0,0,.829-.71,4.282,4.282,0,0,1,4.646-3.89,5.047,5.047,0,0,1,4.888,4.866c0,2.328-3.558,2.746-5.909,3.022l-.744.09c-4.482.564-6.765,2.526-6.765,5.768,0,3.783,2.791,6.038,7.465,6.038a7.08,7.08,0,0,0,5.147-2.255.344.344,0,0,1,.355-.1.169.169,0,0,1,.1.163v.716a1,1,0,0,0,1,1H374.8a1.032,1.032,0,0,0,1.026-1.026V64.415a8.564,8.564,0,0,0-7.871-8.587ZM371.827,70.6a5.408,5.408,0,0,1-1.635,4.065,6.314,6.314,0,0,1-4.121,1.511c-2.1,0-4.364-1.128-4.364-3.512,0-2.255,1.838-3.586,5.463-4a19.117,19.117,0,0,0,4.223-.908.744.744,0,0,1,.237-.051.163.163,0,0,1,.1,0c.045,0,.118.13.118.434v.688C371.849,69.444,371.855,70.053,371.827,70.6Z" transform="translate(-156.341 -24.341)" fill="#fff"/>
      <path id="Path_68" data-name="Path 68" d="M69.108,0C65.6,0,62.72,3.421,62.72,6.953c0,6.241,5.052,16.459,5.327,17.033s.56,1.056,1.061,1.056.79-.537,1.061-1.056S75.5,13.194,75.5,6.953C75.5,3.421,72.635,0,69.108,0Z" transform="translate(-19.183 8.011)" fill="#fff"/>
      <path id="Path_69" data-name="Path 69" d="M69.108,123.773c3.527,0,6.388-3.421,6.388-6.953,0-6.241-5.052-16.459-5.327-17.029s-.56-1.061-1.061-1.061-.79.537-1.061,1.042S62.72,110.56,62.72,116.8C62.72,120.351,65.6,123.773,69.108,123.773Z" transform="translate(-19.183 -45.377)" fill="#fff"/>
      <path id="Path_70" data-name="Path 70" d="M0,69.108C0,72.635,3.421,75.5,6.953,75.5c6.241,0,16.459-5.052,17.033-5.327s1.056-.56,1.056-1.061-.537-.79-1.056-1.061S13.194,62.72,6.953,62.72C3.421,62.72,0,65.6,0,69.108Z" transform="translate(14.733 -25.905)" fill="#fff"/>
      <path id="Path_74" data-name="Path 74" d="M20.456,109.727c2.5,2.494,6.939,2.094,9.437-.4,4.413-4.413,8.078-15.2,8.266-15.812s.354-1.144,0-1.5-.918-.179-1.5,0-11.4,3.862-15.812,8.266C18.362,102.788,17.957,107.229,20.456,109.727Z" transform="translate(4.583 -41.637)" fill="#fff"/>
      <path id="Path_75" data-name="Path 75" d="M20.457,20.457c-2.5,2.5-2.094,6.939.4,9.442,4.413,4.409,15.2,8.074,15.812,8.266s1.144.354,1.5,0,.175-.918,0-1.5S34.308,25.27,29.9,20.856C27.4,18.363,22.955,17.958,20.457,20.457Z" transform="translate(4.581 -2.139)" fill="#fff"/>
    </g>
  </g>
</svg>
